<svg width="213" height="226" viewBox="0 0 213 226" fill="none" xmlns="http://www.w3.org/2000/svg">
<ellipse cx="105.873" cy="111.937" rx="54.0216" ry="53.7729" transform="rotate(-15 105.873 111.937)" fill="#F24E1E"/>
<g style="mix-blend-mode:darken" opacity="0.42">
<path d="M156.667 97.8255C155.98 95.2631 155.284 92.7961 154.355 90.3913L153.886 89.2366C153.709 88.8389 153.958 89.4399 153.771 89.0075L153.442 88.2422L152.743 86.7594L152.015 85.4329L150.894 83.6363L148.815 80.649L148.269 79.8676L148.001 79.5311L147.2 78.4652L146.362 77.3909L144.433 75.1614L143.665 74.3467L143.3 73.9805L142.83 73.5498L141.962 72.6317L141.142 71.7567L140.203 70.8391C139.543 70.1625 138.68 69.2617 137.477 68.4151L136.744 67.869L135.826 67.2244L135.11 66.804L134.246 66.1634C134.118 66.0861 134.161 66.1118 134.212 66.1722L133.355 65.6226C133.355 65.6226 133.313 65.5969 133.338 65.627L132.352 64.9265L130.983 63.9942L129.627 63.0401L128.161 62.2081L127.265 61.7801L126.254 61.3832L125.9 61.2553L125.044 60.9095L124.286 60.6671L123.71 60.5059L122.643 60.2351L121.491 60.0428L119.994 59.7573L119.163 59.5717L116.508 58.8728L115.262 58.5944L112.764 58.1504L111.334 58.0509L110.975 58.0358L109.394 57.5687L107.529 57.2335L106.267 57.1633L103.629 56.9239L103.378 56.9168L102.793 56.8511L101.911 56.8089L100.12 56.7506L99.5649 56.7324L98.7353 56.7506L97.2179 56.786L96.0278 57.0492C96.21 57.0004 96.442 56.9383 96.21 57.0004L94.2885 57.5153C91.2073 58.3409 89.4065 61.6255 90.2693 64.8458C91.1322 68.0661 94.3341 70.0102 97.4153 69.1846L98.8067 68.8118C98.8067 68.8118 99.0194 68.8105 99.3196 68.8043L99.9531 68.783L101.239 68.8097L102.195 68.8687L102.672 68.9265L103.445 68.9607L105.774 69.1716L106.797 69.213C106.982 69.2378 106.667 69.1921 106.953 69.264C107.293 69.34 107.767 69.5841 109.042 69.8363L110.874 70.0504L111.869 70.1179L112.799 70.2769L114.197 70.589L116.507 71.1946L118.073 71.5361L119.666 71.8513L120.408 71.9681L120.903 72.0951L121.399 72.2221L121.479 72.2563L122.196 72.5466L122.824 72.7682L123.085 72.8836L123.755 73.261L124.329 73.6823L126.289 75.0315L127.037 75.5731L127.975 76.1569L128.272 76.3372L128.54 76.5436C129.524 77.3005 129.372 77.063 129.678 77.2779L130.448 77.8324L131.117 78.3398L132.119 79.2961L133.156 80.3172L133.757 80.9725L134.77 82.0371L135.37 82.6186L135.469 82.7221L136.113 83.4031L137.598 85.1021L138.138 85.7924L138.887 86.798L139.155 87.1345L139.502 87.6352L141.454 90.4152L142.113 91.482L142.504 92.2123L142.885 93.038L143.16 93.6693C143.401 94.2358 143.231 93.7989 143.298 93.9849L143.562 94.638C144.243 96.3853 144.836 98.3977 145.446 100.739L146.768 105.674C147.208 107.319 147.483 108.674 147.578 110.022L147.768 112.587L147.887 113.892L147.931 115.847L147.94 116.809L147.86 117.239L147.715 118.354L147.541 119.625L147.463 120.129L147.323 121.131L147.244 121.765L147.172 122.489L147.114 122.802L146.864 124.056L146.533 125.537L146.402 126.24L146.384 126.374C146.384 126.374 146.431 126.084 146.342 126.349L146.201 126.683L146.072 126.996L145.473 128.14L145.098 128.927L144.692 129.667L144.174 130.715L143.733 131.52L142.791 133.572L142.577 133.964L142.396 134.216L141.909 134.588C140.962 135.361 140.796 135.666 140.743 135.735L139.729 136.787L138.663 138.111L137.986 138.961L137.536 139.471L137.061 140.081L135.899 141.246L135.044 142.031L134.199 142.852L133.441 143.537L132.72 144.157L132.238 144.546L131.045 145.46L130.767 145.683L130.388 145.858L129.533 146.31C129.331 146.42 128.659 146.693 127.698 147.414L126.777 148.218L125.965 148.899L125.156 149.654L124.493 150.296L124.22 150.536L124.13 150.597L122.813 151.581L121.754 152.663L121.112 153.447L121.048 153.538L121.024 153.582L120.726 153.996C120.59 154.218 119.942 153.853 119.786 156.716C119.785 156.846 119.776 156.941 119.763 157.093C119.767 157.24 119.787 157.383 119.791 157.531C119.795 157.678 119.778 157.813 119.794 157.938C119.808 157.99 119.827 158.059 119.84 158.111C119.863 158.328 119.919 158.536 119.979 158.761C120.025 158.934 120.076 159.124 120.123 159.298C120.174 159.488 120.279 159.682 120.363 159.864C120.448 160.046 120.51 160.214 120.607 160.374C120.703 160.534 120.815 160.689 120.911 160.849C121.024 161.005 121.12 161.164 121.249 161.315C121.379 161.466 121.503 161.6 121.644 161.729C121.785 161.858 121.91 161.992 122.051 162.121C122.209 162.246 122.362 162.353 122.515 162.461C122.663 162.551 122.8 162.663 122.948 162.753L122.991 162.779C123.156 162.864 123.333 162.928 123.498 163.014C123.658 163.082 123.823 163.168 123.995 163.215L124.092 163.244C124.248 163.295 124.411 163.307 124.562 163.341C124.73 163.37 124.902 163.417 125.086 163.442C125.14 163.446 125.195 163.45 125.266 163.449C125.299 163.441 125.325 163.471 125.358 163.462C125.483 163.465 125.604 163.452 125.745 163.451L125.812 163.433C125.941 163.454 126.067 163.457 126.192 163.461L126.341 163.421C129.412 163.155 128.758 162.569 128.893 162.477C128.955 162.442 128.893 162.477 128.832 162.512C128.832 162.512 128.815 162.517 128.737 162.556C128.77 162.548 128.782 162.526 128.811 162.5C129.052 162.342 129.273 162.172 129.484 161.966C129.525 161.918 129.582 161.866 129.622 161.818C129.817 161.618 130.012 161.417 130.181 161.186L130.464 160.85L131.597 160.046L132.452 159.26L133.127 158.597L133.765 157.999L134.264 157.605C135.109 156.915 134.245 157.536 134.584 157.278L135.087 157.032L135.601 156.765L136.556 156.286C137.513 155.751 137.817 155.429 137.964 155.315L139.395 154.226L140.024 153.724L141.137 152.776L142.008 151.986L142.683 151.323L143.822 150.275C144.445 149.682 145.292 148.935 146.187 147.767L146.379 147.493L146.886 146.931L147.806 145.793L148.248 145.192L148.914 144.494L149.258 144.124C149.36 144.041 149.495 143.949 149.671 143.809L150.949 142.613C151.098 142.443 151.85 141.537 152.5 140.453L153.12 139.322L153.959 137.483L154.42 136.617L154.847 135.76L155.486 134.568L155.754 133.977L156.57 132.385L156.989 131.364L157.246 130.664C157.334 130.399 157.564 129.929 157.768 128.836L157.865 128.271L158.204 126.752L158.431 125.614L158.673 124.065L158.723 123.588L158.789 123.106L158.926 122.16L159.014 121.561L159.184 120.273L159.255 119.678L159.463 118.268L159.503 116.03L159.429 113.304L159.313 112.073L159.116 109.417C158.941 107.107 158.481 104.929 157.915 102.817L156.607 97.9343L156.667 97.8255ZM130.447 160.855C130.447 160.855 130.383 160.946 130.331 161.016C130.331 161.016 130.343 160.994 130.354 160.973C130.407 160.903 130.454 160.816 130.502 160.729C130.454 160.816 130.431 160.859 130.431 160.859L130.447 160.855ZM149.348 144.063L149.382 144.054L149.552 143.897C149.716 143.778 149.552 143.897 149.348 144.063Z" fill="#22262A" fill-opacity="0.23"/>
</g>
<path d="M160.313 97.9806L159.284 94.3407C158.786 92.2844 158.113 90.8318 157.362 89.4188C156.78 88.4425 156.041 86.5438 155.18 84.7889C154.329 82.9386 153.46 81.3528 152.483 79.7591L150.341 76.7331L148.605 74.5631L146.91 72.8091C146.588 72.4686 145.935 71.6228 145.312 70.6209L144.069 68.6342C143.194 67.2913 142.121 66.4655 141.226 65.7774L138.878 63.7716C137.89 62.8673 136.87 62.1756 135.934 61.6655L133.958 60.3207L132.546 59.289L131.462 58.6887L130.542 58.3043L130.087 58.1293C128.603 57.5619 127.491 57.7856 127.056 57.7537C126.742 57.7079 125.923 57.1667 124.51 56.5989C122.675 55.8472 120.953 55.7149 119.725 55.5057L117.474 55.2553C116.605 55.1913 115.47 55.1984 114.224 55.3839L112.391 55.7638L111.979 55.8184L110.425 55.7153L109.225 55.48L108.377 55.4289L107.394 55.4697L104.032 56.1106L101.954 56.7045L101.076 56.9398L100.537 57.0472L99.9479 57.1679L99.3092 57.302L98.4478 57.5328C98.129 57.4697 97.744 57.4244 97.2405 57.4666C95.9941 57.6521 94.1103 58.1754 92.1947 58.9114C89.6635 59.868 87.4199 60.9702 85.4149 62.1012L79.0121 65.5055C77.2396 66.4443 75.6878 67.2127 74.3454 68.1662L71.1815 70.4057L68.9034 72.2409C67.2185 73.6387 65.7568 74.8098 64.4628 76.474C63.7253 77.4324 63.2078 78.3505 62.7189 79.2423L61.0598 82.0621C60.2541 83.4285 59.5385 84.2697 58.8547 85.3622C58.0378 86.6203 57.2023 88.273 56.3734 90.0167L54.7435 93.6081L54.1347 95.3114L53.5013 98.1162L53.0071 100.049L52.0538 103.514C51.7464 104.951 51.5377 106.956 51.3795 109.281L51.1988 114.172C51.177 116.145 51.2493 117.74 51.3667 119.305L51.7956 122.827C52.0627 124.685 52.3232 126.916 52.762 128.951C53.155 130.683 53.6335 132.336 54.3154 133.954C54.827 135.134 55.436 136.214 56.0635 137.363L58.2775 141.651C59.3325 143.799 60.3166 145.484 61.7652 146.914C62.6611 147.806 63.5875 148.745 64.4562 149.867L65.8133 151.619C67.0181 153.133 68.1737 154.067 69.224 154.806L72.5074 157.452C73.3543 158.227 74.1819 159.063 75.3574 159.806C76.5919 160.57 77.9537 160.947 79.3008 161.403L82.5152 162.731C83.3097 163.112 84.0572 163.45 84.9988 163.717L88.304 164.39C90.6457 164.913 91.9902 165.425 93.5785 165.853C95.2781 166.233 97.211 166.29 99.3254 165.965C100.496 165.763 101.539 165.613 102.312 165.647L105.447 165.754L108.561 165.977L110.837 165.924C112.009 165.925 113.355 166.177 114.983 165.889L117.9 165.182L120.617 164.454C122.009 163.951 123.057 163.225 123.779 162.938C124.577 162.669 125.412 162.538 126.353 162.472L128.124 162.257C129.323 162.028 130.376 161.449 131.299 160.719C132.784 159.505 134.214 158.547 135.884 157.821L138.995 156.709L140.588 156.226L141.905 155.577C142.697 155.086 143.423 154.483 144.138 153.772L145.195 152.617L147.153 150.645L148.66 148.979L149.761 147.589L152.044 144.713L154.403 141.725C155.426 140.374 156.201 139.09 156.851 137.673L158.068 134.396L159.542 130.884L160.709 126.229L161.21 123.33L161.883 118.287C162.139 116.79 162.219 115.433 162.122 114.011L161.693 108.633L161.3 105.176C161.189 103.239 161.272 101.695 160.877 99.8891L160.353 97.9326L160.313 97.9806ZM155.655 99.2842L156.156 101.154C156.367 102.007 156.412 103.368 156.593 105.435L157.051 109.265L157.748 114.385C157.882 115.481 157.885 116.353 157.735 117.581L157.17 122.761L156.824 125.247L155.601 129.694L154.557 132.758L153.183 135.909C152.678 137.009 152.059 138.011 151.209 139.147L148.842 141.842L146.414 144.774L145.392 145.995L143.997 147.482L141.943 149.554L140.937 150.64L139.551 151.828L138.93 152.161L137.645 152.598C136.549 152.948 135.354 153.324 134.113 153.86C132.014 154.775 130.257 155.97 128.574 157.311C128.093 157.7 127.602 157.924 127.233 158.005L125.805 158.109C124.711 158.198 123.493 158.357 122.311 158.785C120.917 159.215 119.808 159.846 119.046 160.05L116.545 160.72L113.979 161.482C113.224 161.647 112.074 161.528 110.566 161.599L108.637 161.689C107.491 161.587 106.377 161.273 104.902 161.335L102.499 161.311C101.132 161.176 99.7791 161.297 98.4241 161.475C96.8537 161.71 95.429 161.628 94.2913 161.357L88.9989 160.159L85.8686 159.476L84.0596 158.755L80.38 157.347C78.9998 156.9 77.8176 156.53 77.1861 156.161C76.4791 155.775 75.7495 155.173 74.8457 154.45L71.2535 151.646C70.3258 150.967 69.6008 150.381 68.6592 149.186L67.3657 147.473C66.3491 146.131 65.3055 145.019 64.3579 144.067C63.3632 143.071 62.6767 141.901 61.7178 139.912L59.5376 135.486L58.0432 132.361C57.5064 131.02 57.1234 129.657 56.798 128.111C56.4261 126.392 56.1888 124.247 55.9243 122.333L55.579 119.122L55.4681 114.401L55.6759 109.744C55.817 107.553 56.0462 105.692 56.276 104.628L57.1433 101.371L57.6309 99.3478L58.235 96.6993L58.6571 95.4914L60.1677 92.1176C60.9442 90.4436 61.7366 88.8951 62.3131 87.9984C62.8465 87.206 63.7211 86.2294 64.7646 84.558L66.3535 81.6086L67.7263 79.3109C68.6566 78.0781 69.8055 77.0651 71.4527 75.6588L73.5505 73.9462L76.6011 71.6814C77.6235 70.9249 79.0382 70.1748 80.8676 69.1835L87.1875 65.3375C89.0037 64.1643 91.0465 63.0417 93.3557 62.0518C93.6566 61.9155 93.9501 61.8183 94.2556 61.6994C94.2761 62.3062 94.7817 62.8017 95.3655 62.7937L96.1732 62.8927C96.4045 62.9607 96.6549 62.9678 96.8961 62.9403L97.3123 62.903C97.4541 62.9021 97.6078 62.8795 97.7403 62.844L97.9722 62.7818L98.3791 62.7099L98.6441 62.6389L99.1835 62.5315L99.7726 62.4108L100.362 62.29L100.934 62.1737L101.523 62.053L102.129 61.9278L105.16 61.1156L107.873 60.7042L108.336 60.7099L108.771 60.7419L109.968 60.9036L112.123 60.9942L113.284 60.8873L115.051 60.5251C115.815 60.3946 116.683 60.3849 117.209 60.4293L119.125 60.6211C120.556 60.7943 121.889 60.8641 122.891 61.2264C123.658 61.5034 124.762 62.3767 126.548 62.5477L128.461 62.6658L128.964 62.8838L129.463 63.1582L130.142 63.5702L131.15 64.2836C131.997 64.9287 132.869 65.5302 133.736 65.9844C134.405 66.3618 135.06 66.8173 135.707 67.4419C136.542 68.2388 137.471 69.1218 138.54 69.9303C139.369 70.5061 139.875 70.8715 140.234 71.3505L141.349 73.2599C142.087 74.4909 142.829 75.5355 143.588 76.3156L145.001 77.8112L146.503 79.8396L148.366 82.5508C149.264 83.9803 150.051 85.3281 150.811 86.9059C151.513 88.4623 152.136 90.3921 153.094 92.1768C153.792 93.3257 154.242 94.0773 154.674 95.5574L155.641 99.3623L155.655 99.2842Z" fill="black"/>
<ellipse cx="131.362" cy="106.634" rx="20.4323" ry="19.5809" transform="rotate(-15 131.362 106.634)" fill="white"/>
<ellipse cx="83.0644" cy="120.456" rx="19.5809" ry="18.7296" transform="rotate(-15 83.0644 120.456)" fill="white"/>
<path d="M93.3635 115.178L93.1315 114.641L92.798 113.726L92.5551 113.279C92.5122 113.185 92.4573 113.112 92.3815 113.026L92.3101 112.957L91.9629 112.451L91.5323 111.897L91.2457 111.55L90.9261 111.213L90.7745 111.042L90.2629 110.58C89.8226 110.186 89.377 109.971 88.9896 109.775L88.4233 109.504L87.8242 109.241L87.168 109.029L86.7116 108.905L86.1609 108.823C85.3997 108.745 84.6231 108.742 83.7326 108.839L82.4189 109.068C81.6788 109.266 80.7919 109.574 79.8242 110.239C79.3673 110.573 78.7963 111.008 78.1303 111.68L77.3013 112.731L77.2651 112.793C77.0064 112.88 76.7905 113.061 76.6461 113.312L76.5345 113.553C76.5345 113.553 76.5072 113.649 76.504 113.702C76.4887 113.777 76.457 113.856 76.4417 113.931C76.4265 114.005 76.4485 114.087 76.4497 114.158C76.4629 114.207 76.4432 114.265 76.4565 114.314C76.4565 114.314 76.4653 114.347 76.4697 114.364C76.4741 114.38 76.4829 114.413 76.4873 114.43L76.391 114.596L76.23 114.851L75.9375 115.141L75.5707 115.68L75.3605 115.948L74.8416 116.774L74.7344 117.032L74.4916 117.573L74.2399 118.081L73.8124 119.183C73.5927 119.876 73.4786 120.7 73.4061 121.548C73.3307 122.714 73.4944 123.851 73.908 124.869C74.1216 125.534 74.4568 126.061 74.7502 126.564L75.0437 127.068L75.5051 127.737L75.9895 128.295L76.3837 128.647L76.9029 129.072L77.263 129.364L77.4178 129.481L78.1918 130.067L78.8679 130.485L80.3153 131.084L80.9286 131.202L81.5045 131.312L81.8567 131.376L82.5653 131.521C83.7983 131.649 84.8465 131.351 85.7631 131.088L86.6292 130.767L87.6894 130.448L88.7276 130.046L89.2592 129.728L89.7775 129.36L90.3549 128.817L90.7449 128.431L91.0165 128.129L91.8042 127.318L92.3824 126.582L92.7612 126.022L93.116 125.504L93.545 124.737L93.7867 124.125L94.1076 122.823L94.2433 120.83L94.2614 119.45L94.242 118.786L94.1012 117.537L93.6561 115.875L93.38 115.174L93.3635 115.178Z" fill="black"/>
<path d="M140.837 101.241L140.231 100.293L139.741 99.649L138.994 98.9677L138.625 98.6435L138.298 98.3434L137.645 97.8133C136.988 97.337 135.956 96.838 134.636 96.7157C133.776 96.6641 132.76 96.6895 131.462 96.8435L130.812 96.9824L129.807 97.1811L128.887 97.498L128.395 97.7005C128.301 97.7434 128.195 97.8071 128.105 97.8664C128.031 97.9213 127.946 97.9971 127.872 98.0521C127.807 98.0697 127.749 98.05 127.683 98.0676C127.469 98.1249 127.294 98.26 127.16 98.4192L126.815 98.5117L125.891 99.0766L125.462 99.3853L124.873 99.9487L124.435 100.419C124.095 100.862 123.884 101.324 123.75 101.678C123.356 102.576 123.144 103.497 122.936 104.363L122.56 105.857L122.426 106.739C122.37 107.318 122.481 107.799 122.531 108.05L122.898 109.75L123.11 110.539L123.729 111.731L124.067 112.204L124.363 112.583L124.82 113.042L125.249 113.456L125.585 113.789L125.946 114.151L126.278 114.467L126.764 114.901L127.331 115.437L128.017 115.958L128.925 116.455L129.776 116.668C131.006 116.85 132.325 116.972 133.624 116.818C133.689 116.8 133.739 116.787 133.804 116.769L134.04 116.794C134.846 116.843 135.582 116.628 136.066 116.393C136.426 116.226 136.884 115.962 137.288 115.625C137.427 115.552 137.566 115.48 137.722 115.403L137.901 115.284L138.877 114.582L139.291 114.154L139.7 113.709L139.987 113.332L140.379 112.822L140.754 112.246L140.946 111.912L141.183 111.478L141.648 110.649L141.918 110.012L142.167 109.099L142.324 108.106L142.356 107.568C142.343 107.06 142.427 106.386 142.36 105.61C142.341 104.681 142.059 103.893 141.866 103.24C141.637 102.384 141.201 101.743 140.858 101.253L140.837 101.241Z" fill="black"/>
<path d="M101.196 109.148L100.819 108.597L100.572 108.135L100.255 107.479L99.9082 106.973L99.3874 106.213L98.9031 105.656L98.142 104.855L97.1055 103.881L96.9046 103.723L96.4719 103.293L96.0108 102.888L95.4859 102.376L94.4452 101.65L92.8507 100.896L91.9696 100.568L91.0062 100.262L90.4303 100.152L89.8816 99.9467L89.4405 99.7476L88.7547 99.4907L87.821 99.2296L86.7701 99.1235L84.8793 99.1718L84.343 99.2097L83.538 99.2315L82.6848 99.3367L81.9227 99.4528L81.3306 99.6115L79.0486 99.9761L77.6374 100.301L76.6999 100.553L76.1134 100.798L75.208 101.234L74.2776 101.907L73.8776 102.19C73.6573 102.355 73.4832 102.56 73.3552 102.806L73.2469 102.994L72.8941 103.388C72.2571 103.576 71.6938 103.974 71.2172 104.366C70.2113 105.217 69.0919 106.434 67.8256 107.76L66.2815 109.761L65.6827 110.75L65.2417 111.538L64.8455 112.296L64.4735 113.013C63.4407 115.211 62.3349 117.728 62.1483 120.387C61.9864 122.546 62.2036 124.409 62.5609 126.005C62.8256 127.257 63.1649 128.523 63.6863 129.811C64.1945 131.05 64.9295 132.016 65.662 132.842L66.7691 134.079L67.3248 134.706L67.7959 135.214L68.3176 135.78L68.7282 136.128L69.13 136.443L69.6196 136.823L70.9225 137.673L71.6612 138.127L72.0707 138.405L72.4505 138.639L72.9553 138.944L73.7895 139.426L74.1978 139.633L75.0548 140.003L75.587 140.213C77.3448 140.853 79.0791 141.075 81.0798 141.174C83.1659 141.197 84.931 140.547 86.6864 140.059C88.433 139.538 90.1402 139.134 92.0051 138.528C93.4336 138.005 94.6665 137.146 95.7282 136.174L97.2717 134.632L97.8696 133.837L99.0381 132.343L99.5594 131.657L100.076 130.954L100.584 130.219L100.873 129.718L101.56 128.335L101.776 127.89L102.044 127.377L102.26 126.932L102.448 126.582L102.67 126.029L102.75 125.866C103.174 124.818 103.413 123.802 103.548 122.726L103.67 121.142L103.739 120.348L103.758 119.497L103.749 119.006C103.724 117.003 103.556 115.126 102.979 113.236C102.673 112.225 102.384 111.016 101.62 109.81L101.208 109.128L101.196 109.148ZM100.558 119.068L100.558 119.596L100.575 120.315L100.578 120.984L100.494 122.381C100.393 123.254 100.21 123.955 99.8977 124.762L99.7359 125.211L99.7098 125.376L99.5544 125.718L99.4473 125.975L99.0905 126.617L98.887 127.042L98.2216 128.243L98.053 128.535L97.5964 129.133L97.1518 129.711L96.5603 130.398L95.4103 131.764L94.7892 132.406L93.5313 133.501C92.6218 134.185 91.7176 134.692 90.8579 134.905C89.2385 135.374 87.5542 135.667 85.6047 136.154C83.7791 136.643 82.3494 137.097 81.0727 137.069C79.3178 137.098 78.0861 137.04 76.7333 136.662L76.256 136.526L75.5461 136.311L75.3673 136.235L74.8218 135.976L74.3334 135.666L73.9284 135.405L73.486 135.135L72.6399 134.675L71.5017 134.045L71.1548 133.803L70.741 133.509L70.6532 133.444L70.182 132.936L69.7614 132.484L69.1431 131.821L68.113 130.74C67.498 130.024 67.0573 129.366 66.7592 128.582C66.3532 127.528 66.0788 126.438 65.891 125.342C65.6657 123.975 65.5871 122.497 65.7966 120.714C66.0182 118.909 66.9908 116.816 68.1081 114.736L68.3915 114.149L68.8719 113.244L69.1071 112.74L69.6425 111.91L70.9904 110.032L73.4186 106.332L73.6092 106.122L74.9772 105.439L75.0101 105.43C75.2745 105.43 75.5541 105.355 75.7875 105.239L76.0046 105.128L77.0319 104.818L78.2818 104.483L78.8005 104.379L79.9321 104.129L82.0428 103.651L82.7019 103.545L83.3939 103.43L83.7809 103.362L84.4829 103.35L85.1968 103.317L86.4395 103.284L87.1514 103.375L87.6901 103.478L88.0093 103.551L88.2211 103.618C88.4581 103.713 88.9125 103.961 89.6749 104.109L90.2212 104.175L90.7883 104.252L91.2448 104.376L92.6276 105.063L93.4365 105.516L93.6987 105.64L94.1707 105.954L94.4759 106.172L94.8745 106.541L95.8385 107.376L96.45 107.882L96.7948 108.248L97.2507 108.831L97.5045 109.186L97.7462 109.562L98.1078 110.188L98.4771 110.776L98.9276 111.537C99.3771 112.227 99.6227 113.078 99.9376 114.122C100.406 115.671 100.526 117.172 100.549 119.035L100.558 119.068Z" fill="black"/>
<path d="M150.993 99.0137L150.688 98.073C150.393 97.2354 150.02 96.4363 149.628 95.6953L149.249 95.0037L148.707 94.2322L148.168 93.6011L147.827 93.2517L147.386 92.7882L146.853 92.314L145.887 91.6032L145.623 91.3392L145.22 90.9537L144.422 90.4095L143.634 89.9685L142.983 89.5788L141.841 89.0032L141.634 88.953L141.43 88.849L140.867 88.5239L139.821 87.9757L138.582 87.4968L138.117 87.3394L137.29 87.0147L136.874 86.844L136.042 86.5029C135.225 86.2812 134.269 85.9379 133.193 85.8032C131.9 85.5854 130.859 85.7764 129.934 85.8126L128.387 85.8924L127.157 85.975L126.073 86.0717L125.48 86.2304L124.628 86.4057C124.086 86.5512 123.37 86.7078 122.37 87.1872L121.202 87.9585L119.793 88.6885L118.817 89.3203L118.018 89.9574L117.287 90.7173L116.551 91.6548C116.446 91.7887 116.383 91.9468 116.319 92.1048C115.523 92.8823 114.817 93.8648 114.063 95.0009L112.23 98.2243L111.362 99.9199L111.113 100.568L110.966 101.137L110.824 101.792L110.739 102.66L110.428 105.511L110.415 107.172L110.672 108.989L110.82 109.672L111.012 110.52L111.184 111.161L111.595 112.497L111.996 113.993L112.468 115.295L112.906 116.076L113.072 116.367L113.345 116.858L113.809 117.668L114.398 118.814L114.855 119.732L115.207 120.254L115.553 120.69L115.966 121.179L117.347 122.519L119.603 124.294C120.495 124.99 121.521 125.596 122.77 125.914L124.151 126.266L125.326 126.639L126.587 127.2C127.618 127.629 128.613 127.591 129.492 127.515L132.315 127.393C133.761 127.463 135.008 127.446 136.209 127.125L137.984 126.579C139.501 125.925 140.965 125.075 142.319 124.271C144 123.31 145.658 121.931 147.058 120.181C147.672 119.382 148.278 118.55 148.844 117.57L149.637 116.123L149.91 115.627L150.538 114.683L150.782 114.212L151.215 113.462C151.895 112.116 152.321 110.68 152.608 109.316C152.861 107.891 152.673 106.531 152.39 105.214L152.138 103.484L151.963 102.174L151.677 101.104L150.957 99.0762L150.993 99.0137ZM149.374 103.696L149.61 105.695C149.825 106.889 149.914 107.817 149.724 108.749C149.532 109.876 149.21 111.108 148.696 112.215L148.345 112.944L148.121 113.427L147.795 114.184L147.446 114.789L146.655 116.111C146.127 116.905 145.54 117.609 144.88 118.367C143.706 119.775 142.279 120.898 140.936 121.61C139.552 122.298 138.114 122.983 136.697 123.486L135.429 123.949C134.639 124.161 133.785 124.196 132.499 124.135C131.333 124.06 130.168 124.054 129.112 124.126C128.445 124.199 128.143 124.192 127.889 124.101L126.698 123.469L124.955 122.754L123.603 122.447C122.869 122.273 122.39 121.996 121.683 121.463L119.519 119.769L118.487 118.811L118.184 118.47L117.913 118.119L117.863 118.062L117.477 117.214L116.765 115.871L116.306 115.148L116.034 114.656L115.8 114.243L115.43 113.655L115.152 113.077L114.764 111.63L114.417 110.136L114.073 108.853L113.948 108.253L113.777 106.958L113.814 105.715L114.153 102.768L114.198 102.28L114.275 101.907L114.396 101.504L114.558 101.056L115.115 99.5842L116.645 96.4773C116.645 96.4773 116.705 96.373 116.729 96.3313C117.104 96.2837 117.472 96.0793 117.698 95.7368L118.646 94.4075L119.001 94.1537C119.136 94.0647 119.262 93.9428 119.367 93.8089L119.939 93.1797L120.509 92.6745L120.961 92.324L121.718 91.857L122.879 91.1932L124.072 90.6444L125.865 90.1641L126.415 89.9813L127.353 89.7301L128.703 89.7033L130.162 89.559C131.334 89.4567 132.127 89.2616 132.636 89.3191C133.295 89.4072 134.092 89.687 135.254 90.0103L135.644 90.0822L136.295 90.2778L137.062 90.4424L137.481 90.5593L138.318 90.9169L139.268 91.4379L139.727 91.7027L139.868 91.7705L140.516 92.214L141.59 92.737L141.902 92.8474L142.803 93.3816L143.32 93.6661L143.466 93.7504L143.914 94.1063L145.092 94.8836L145.413 95.0972L146.062 95.6108L146.141 95.6425L146.519 95.9996L146.862 96.4895L147.198 97.0867L148.16 99.0324L148.488 99.8612L149.05 101.826L149.266 102.632L149.379 103.712L149.374 103.696Z" fill="black"/>
<path d="M81.954 115.556C81.2935 115.327 80.8703 115.458 80.5117 115.502C80.3472 115.546 80.0171 115.564 79.5172 115.803C79.0875 116.042 78.7918 116.386 78.5663 116.728C78.5258 116.774 78.4644 116.808 78.4194 116.838C78.3219 116.935 78.2289 117.048 78.1611 117.189C77.7529 117.968 77.987 118.382 78.0034 118.377C77.9993 118.625 78.0193 118.831 78.0305 119.005C78.0637 119.26 78.0917 119.693 78.4509 120.179C78.485 120.24 78.5519 120.293 78.586 120.354C78.6365 120.411 78.6662 120.456 78.7123 120.496C78.7123 120.496 78.7331 120.509 78.754 120.521C79.0351 120.78 79.3479 120.961 79.6683 121.104C80.1544 121.274 80.5295 121.226 80.7686 121.197C81.2587 121.119 81.9551 121.02 82.5697 120.485C83.6414 119.616 83.7232 118.343 83.4752 117.352C83.462 117.302 83.4661 117.055 83.299 116.694C82.9635 115.902 82.3358 115.665 81.9748 115.568L81.954 115.556Z" fill="white"/>
<path d="M87.413 122.114C86.4097 122.383 85.8198 123.404 86.0886 124.408C86.3574 125.411 87.3792 126.001 88.3825 125.732C89.3857 125.463 89.9756 124.441 89.7068 123.438C89.438 122.435 88.4162 121.845 87.413 122.114Z" fill="white"/>
<path d="M138.138 108.998C138.062 108.842 137.965 108.745 137.868 108.647C137.855 108.598 137.875 108.54 137.862 108.49C137.729 107.997 137.274 107.678 136.782 107.687C136.584 107.669 136.394 107.685 136.206 107.771C136.156 107.784 136.12 107.846 136.075 107.876L135.411 107.896L134.902 108.102C134.342 108.446 134.143 109.152 134.372 109.743C134.352 109.801 134.337 109.875 134.322 109.95L134.374 110.342C134.418 110.506 134.347 110.243 134.354 110.4C134.365 110.573 134.346 110.895 134.655 111.324C134.739 111.442 134.836 111.54 134.961 111.612C135.708 112.099 136.062 111.775 136.255 111.706L136.538 111.577C136.538 111.577 136.76 111.483 136.951 111.343C136.984 111.334 136.98 111.318 137.008 111.293L137.025 111.288C137.025 111.288 136.98 111.318 136.951 111.343L136.935 111.348L137.025 111.288C137.107 111.266 137.18 111.211 137.258 111.173C137.352 111.13 137.451 111.103 137.52 111.032C137.594 110.977 137.642 110.894 137.706 110.806C137.747 110.76 137.804 110.709 137.844 110.663C137.901 110.613 137.958 110.562 138.015 110.512C138.214 110.265 138.539 109.701 138.167 108.973L138.138 108.998Z" fill="white"/>
<path d="M131.55 102.566C131.06 102.186 130.709 102.192 130.556 102.145C129.934 101.995 129.431 102.094 129.18 102.144C128.958 102.168 128.544 102.138 127.822 102.402C127.162 102.702 126.765 103.196 126.505 103.671L126.154 104.665C126.068 105.199 126.183 105.626 126.3 106C126.325 106.223 126.361 106.425 126.41 106.606C126.498 106.934 126.626 107.411 126.988 107.843C127.688 108.678 128.611 108.836 129.533 108.854L130.065 108.799C130.637 108.699 131.102 108.327 131.337 107.824C131.862 107.348 132.108 106.753 132.337 106.163C132.498 105.644 132.556 105.135 132.52 104.739C132.53 104.384 132.47 103.959 132.298 103.582C132.251 103.472 132.126 102.941 131.566 102.562L131.55 102.566Z" fill="white"/>
<path d="M58.1836 91.4396L58.0529 91.2808L57.8552 91.0693L57.5817 90.7724L57.3083 90.4755L56.9887 90.1381L56.611 89.781L56.3475 89.5872L55.3815 88.8765L54.8959 88.2486L53.6746 86.8483L51.8389 85.2602C50.8784 84.6362 49.9553 84.0198 48.867 82.9188L45.8975 79.7306C43.6983 76.9178 41.0331 74.1417 38.3584 71.7912C37.1266 70.7463 36.0551 69.9053 34.5074 68.0108L32.7806 65.7764C31.5569 64.2358 30.2005 62.6602 28.6952 61.3184L25.0393 58.3318L20.1306 54.2884C20.4023 53.9864 20.6651 53.6515 20.9115 53.3211C21.4075 52.6065 21.877 51.7932 22.1384 51.1239C22.4141 50.574 22.5688 49.7041 22.2983 49.0891C22.0682 48.428 21.5762 47.9076 21.1548 47.6504L20.1177 47.135L19.8061 47.0246C19.8061 47.0246 19.8322 46.859 19.8266 46.7723L19.8395 46.5574L19.9167 45.9902L20.0353 45.1828L20.1788 44.1396L20.2477 43.0811L20.2729 42.1225C20.2705 41.9821 20.2682 41.8417 20.2285 41.6937L19.66 39.5721C19.6039 39.4284 19.4985 39.2981 19.3854 39.205C19 38.8852 18.4308 38.9319 18.0946 39.3217L16.8386 41.0155C16.7619 41.1242 16.6941 41.2658 16.6383 41.3865L16.2425 42.4092L15.8896 43.5261L15.6835 44.5333L15.542 45.4525L15.4739 46.3169L15.4919 46.647L14.6146 46.7939L13.5127 47.0892L12.7092 47.4455C12.4877 47.5401 12.296 47.6796 12.1295 47.8477C11.5565 48.4066 11.0373 48.9688 10.6913 49.5198C10.6432 49.6032 10.595 49.6866 10.5842 49.7777C10.5842 49.7777 10.5886 49.7941 10.593 49.8106C10.1208 50.2191 9.71989 50.6967 9.38601 51.2269C8.60734 50.3603 7.65539 49.5048 6.59272 48.6966L5.22638 48.0051L4.3015 47.777L3.2442 47.7782C2.65535 47.8831 2.15343 48.2468 1.86888 48.7637C1.74848 48.9722 1.56876 49.0909 1.61023 49.8378C1.61378 50.0484 1.66665 50.2457 1.73598 50.4387C1.98127 51.0252 2.07997 50.9987 2.1766 51.0962C2.5884 51.5147 3.1535 51.7158 3.74353 51.6811C3.71064 51.6899 3.67773 51.6988 3.72707 51.6855L4.25809 51.8253L5.35743 52.1124C6.33928 52.29 7.59341 52.6944 8.64577 53.1351L8.49988 54.038C8.47675 54.8726 8.6084 55.8245 9.18294 56.5872C9.97074 57.751 11.6921 58.1888 12.8293 58.0251L14.4094 57.6722C15.1988 57.4607 16.0649 57.1405 16.9419 56.7293C17.4867 57.447 18.1311 57.9442 18.9688 58.6363L22.4415 61.531L25.9602 64.4662C27.1933 65.5813 28.4102 66.9651 29.5537 68.4038L31.2914 70.5471C33.0347 72.777 34.4181 73.9928 35.5798 75.0389C38.003 77.1747 40.5255 79.8128 42.4885 82.3364C43.486 83.6908 44.5942 84.998 45.5958 86.1045C46.9126 87.5321 48.118 88.4783 49.1346 89.2459L50.1579 90.1704L51.4044 91.5991L51.9787 92.0975L53.1776 93.1511L53.3248 93.3056L53.5269 93.5335L53.7498 93.7735L54.0233 94.0704L54.2923 94.3508L54.6327 94.7003L55.0225 95.0365L55.2355 95.1734C55.511 95.3464 55.8062 95.4612 56.1374 95.5134C56.415 95.5624 56.7342 95.6355 57.3548 95.4516C58.267 95.1719 58.9098 94.3475 58.935 93.3889L58.8607 92.6508C58.7769 92.3383 58.6603 92.0347 58.4659 91.7695L58.1956 91.4188L58.1836 91.4396ZM13.3344 53.9236L12.1996 54.2276L12.1864 54.1783L12.2941 53.462C12.4283 52.8443 12.6888 52.3691 13.287 51.8386C13.3921 51.7047 13.551 51.574 13.7307 51.4553C13.7307 51.4553 13.7471 51.4509 13.7636 51.4465L14.7451 51.3598L15.6224 51.2128L16.5117 51.0451L17.2442 50.884L17.9273 50.7363L18.4131 50.6413L18.0495 51.1266L16.6922 52.4422C15.8243 53.1506 14.5723 53.6095 13.33 53.9071L13.3344 53.9236Z" fill="black"/>
<path d="M165.997 9.08683C165.769 9.02459 165.537 9.0161 165.311 9.09425C164.564 9.32986 164.768 9.43379 164.658 9.55128L164.289 9.94985L163.318 11.1268L160.66 14.4303L159.426 16.2063L158.791 17.2578L158.181 18.3378C157.953 18.2756 157.713 18.2342 157.46 18.2136L156.172 18.2064L153.974 18.6895C153.741 18.8049 153.512 18.9368 153.262 19.0566C153.158 18.9964 153.049 18.9198 152.928 18.864C152.728 18.7765 152.53 18.7591 152.319 18.7627L152.205 18.3351C152.186 18.1991 152.13 18.0555 152.095 17.9239L151.503 16.637L150.908 15.4038L150.353 14.3186L149.842 13.3979L149.258 12.6024C148.493 11.7851 147.251 11.6242 146.32 12.2264C145.253 12.9176 144.93 14.3438 145.626 15.4266L145.81 15.7828L146.206 16.5402L146.748 17.5761L147.384 18.7631L148.061 19.9743C148.129 20.097 148.214 20.2154 148.298 20.3338C148.56 20.6515 148.821 20.9693 149.094 21.2662C149.063 21.3452 149.019 21.4451 148.987 21.5241C148.71 22.4622 148.704 23.3626 148.75 24.1259C148.83 25.2149 149.323 26.264 150.255 27.1776C150.636 27.481 151.032 27.7097 151.448 27.8803L150.526 29.5025L149.77 31.221C148.853 33.4585 147.863 36.2093 146.848 38.4733L144.801 42.7412C143.835 44.9919 142.871 47.5771 141.747 50.7514L140.399 54.6028C139.5 57.1002 138.666 59.3157 138.141 60.3199L137.369 61.7784C137.117 62.2865 136.737 63.0405 136.995 64.1348L137.017 64.217C137.344 65.4341 138.578 66.1609 139.8 65.8512C140.787 65.5868 141.416 64.713 141.474 63.7456L142.185 62.3211C142.883 60.8472 143.643 58.6165 144.513 56.0742L145.868 52.1855L148.698 44.3236L150.395 40.1318C151.501 37.6144 152.482 34.8306 153.334 32.681L154.021 31.0338L154.755 29.2332C154.837 28.9468 154.886 28.6692 154.935 28.3917C154.984 28.3785 155.042 28.3981 155.091 28.3849C156.179 28.2344 157.311 27.9841 158.363 27.4378C158.998 27.1091 159.552 26.6785 160.103 26.0373L160.806 24.8442C161.335 23.8564 161.962 22.8423 161.71 21.6405C161.893 21.468 162.055 21.2836 162.176 21.0751L162.964 19.8062L163.732 18.5955L164.749 16.6661L166.262 13.035C166.685 11.9169 167.246 11.1846 166.853 9.91499C166.796 9.70119 166.835 9.32054 166.03 9.07801L165.997 9.08683ZM141.415 63.6557C141.421 63.5482 141.407 63.4287 141.393 63.3091C141.411 63.4451 141.43 63.5811 141.45 63.5229C141.449 63.4528 141.442 63.5603 141.431 63.6513L141.415 63.6557ZM157.298 23.5278L156.747 23.9047C156.254 24.1071 155.431 24.2572 154.609 24.2834C153.97 24.3314 153.39 24.2048 152.952 23.952C153.365 23.7179 153.546 23.211 153.336 22.756L153.135 22.334L153.038 21.9722C153.587 21.9134 154.148 21.9039 154.88 21.9371L156.473 21.8979L157.196 21.8981C157.874 21.928 158.053 22.0035 158.125 22.1427L157.669 23.0053L157.268 23.4829L157.298 23.5278Z" fill="black"/>
<path d="M142.707 68.0161C143.033 69.2332 142.31 70.4844 141.093 70.8105C139.876 71.1366 138.625 70.4142 138.299 69.1972C137.973 67.9801 138.695 66.7289 139.912 66.4028C141.129 66.0767 142.381 66.7991 142.707 68.0161Z" fill="black"/>
<path d="M168.142 185.968L168.03 185.945C167.686 185.844 167.298 185.842 166.952 185.935L166.73 185.959L166.853 185.961C166.692 185.951 166.54 185.975 166.387 185.998L164.668 186.159C163.701 186.365 162.791 186.785 161.952 187.274L160.981 187.729C160.061 188.046 159.06 188.19 157.909 188.499L157.794 188.53L157.502 187.903L156.952 187.098L156.403 186.364L155.79 185.329L154.374 182.871L153.563 181.096L151.746 177.406C151.093 176.153 150.484 174.8 149.728 172.834L147.468 167.429L145.419 162.936L143.464 158.472L142.27 155.46C142.011 154.824 142.163 154.272 141.049 153.601C140.586 153.32 139.649 153.377 139.237 153.681C138.813 154.007 138.594 154.506 138.648 155.038C138.682 155.293 138.781 155.531 138.937 155.718L139.192 156.672L140.499 159.707L142.517 164.278L144.673 168.707L146.872 173.952C147.666 175.996 148.344 177.471 149.077 178.826L150.814 182.415L151.599 184.161L153.058 186.908L153.655 188.017L154.263 189.035L154.483 189.399L154.684 190.015L154.985 190.745C155.02 190.877 154.953 191.283 155.476 191.918C155.743 192.323 156.145 192.638 156.502 192.789C156.744 192.901 157.005 192.954 157.269 192.954C158.335 192.985 158.797 192.668 159.278 192.557C159.833 192.39 161.076 192.163 162.418 191.645L163.72 190.978C164.487 190.614 164.902 190.521 165.385 190.48C165.64 190.446 166.24 190.515 167.122 190.384C167.274 190.361 167.422 190.321 167.566 190.265L168.446 189.8L168.971 189.325C169.214 189.048 169.39 188.719 169.471 188.362C169.54 188.026 169.595 187.641 169.451 187.169C169.288 186.56 168.776 186.098 168.147 185.985L168.142 185.968ZM156.17 189.247C156.17 189.247 156.293 189.179 156.359 189.161C156.359 189.161 156.359 189.161 156.392 189.152C156.309 189.174 156.227 189.196 156.17 189.247Z" fill="black"/>
<path d="M100.253 164.039L100.261 164.072C100.202 163.718 100.039 163.374 99.758 163.114C99.0871 162.518 98.0639 162.581 97.468 163.252C96.6126 164.204 96.995 164.841 97.0326 165.113L97.0309 165.502L96.1747 171.319L95.8043 174.344L95.3303 177.838L94.7452 181.115C94.5671 182.555 94.504 183.965 94.4848 185.275L94.4899 186.807L94.3144 188.652L93.7604 191.321L93.5409 193.001C93.4185 194.321 93.4627 195.473 93.5506 196.524L93.9474 199.979C93.9651 201.032 93.7153 202.139 93.5324 203.298L93.3871 204.73L93.5083 207.024L93.59 207.461L91.9289 207.906C90.4892 208.256 89.0466 208.925 87.6598 209.473L85.8037 210.111L85.5077 210.19L85.1118 210.226L84.7905 210.277L84.626 210.321C84.4856 210.323 84.3541 210.358 84.2225 210.394L83.7455 210.521L83.2533 210.724C83.0319 210.818 82.8236 210.962 82.6571 211.13C81.8651 211.924 81.8414 213.217 82.6353 214.009L83.3094 214.552L84.0634 214.931C84.1841 214.987 84.3169 215.022 84.4496 215.057L85.0585 215.158L85.7856 215.175L86.2638 215.117L86.766 215.018L87.391 214.851L89.6635 213.924L93.191 212.221L94.8028 211.789L96.3135 211.243C96.5305 211.132 96.7388 210.988 96.9217 210.816C97.2953 210.434 97.6056 209.487 97.5806 208.736L97.6467 208.982L97.5711 208.174L97.4142 207.194L97.2829 206.506L97.2525 204.946L97.3937 203.762C97.5143 202.831 97.7967 201.451 97.7378 199.915C97.7307 198.507 97.5097 197.156 97.4691 196.215C97.4209 195.311 97.4099 194.415 97.5117 193.348L97.6866 191.961L98.0914 189.261L98.3156 186.875L98.339 185.317L98.5572 181.592L98.9998 178.442L99.4847 174.857L99.9044 171.818C100.23 169.351 100.604 167.259 100.704 165.593C100.656 164.689 100.309 164.183 100.207 163.999C100.198 163.966 100.22 164.048 100.233 164.097L100.253 164.039ZM95.3357 207.134L95.4926 207.127C95.4926 207.127 95.3939 207.153 95.3237 207.155L95.3357 207.134ZM100.248 164.481L100.261 164.53L100.244 164.535L100.231 164.485L100.248 164.481Z" fill="black"/>
</svg>
